<svg width="20" height="20" viewBox="0 0 20 20" fill="none" xmlns="http://www.w3.org/2000/svg">
<g id="iconbase">
<path id="OVERLAY COLOR" d="M14.3747 12.4999C13.9069 12.5022 13.4455 12.6096 13.0247 12.814C12.6039 13.0185 12.2344 13.3148 11.9434 13.6811L7.37469 10.8249C7.5412 10.2875 7.5412 9.71228 7.37469 9.17488L11.9434 6.31863C12.4072 6.89283 13.0591 7.28437 13.7839 7.42389C14.5086 7.56341 15.2594 7.4419 15.9031 7.0809C16.5469 6.7199 17.0421 6.14269 17.301 5.45154C17.5599 4.76039 17.5659 3.99989 17.3178 3.30478C17.0697 2.60966 16.5836 2.0248 15.9455 1.65378C15.3075 1.28276 14.5588 1.14954 13.8319 1.27772C13.1051 1.4059 12.447 1.7872 11.9744 2.35408C11.5018 2.92097 11.245 3.63684 11.2497 4.37488C11.2526 4.65437 11.2947 4.93207 11.3747 5.19988L6.80594 8.05613C6.40259 7.54837 5.85127 7.17866 5.22841 6.99826C4.60554 6.81785 3.94198 6.83568 3.3297 7.04927C2.71741 7.26286 2.18674 7.66164 1.81124 8.19032C1.43574 8.71901 1.23401 9.35142 1.23401 9.99988C1.23401 10.6484 1.43574 11.2808 1.81124 11.8094C2.18674 12.3381 2.71741 12.7369 3.3297 12.9505C3.94198 13.1641 4.60554 13.1819 5.22841 13.0015C5.85127 12.8211 6.40259 12.4514 6.80594 11.9436L11.3747 14.7999C11.2947 15.0677 11.2526 15.3454 11.2497 15.6249C11.2497 16.243 11.433 16.8471 11.7763 17.361C12.1197 17.8749 12.6078 18.2755 13.1788 18.512C13.7498 18.7485 14.3782 18.8104 14.9843 18.6898C15.5905 18.5693 16.1474 18.2716 16.5844 17.8346C17.0214 17.3976 17.3191 16.8407 17.4396 16.2345C17.5602 15.6284 17.4983 15 17.2618 14.429C17.0253 13.858 16.6247 13.3699 16.1108 13.0265C15.5969 12.6832 14.9928 12.4999 14.3747 12.4999ZM14.3747 2.49988C14.7455 2.49988 15.108 2.60985 15.4164 2.81588C15.7247 3.02191 15.965 3.31474 16.107 3.65735C16.2489 3.99996 16.286 4.37696 16.2137 4.74068C16.1413 5.10439 15.9627 5.43849 15.7005 5.70071C15.4383 5.96293 15.1042 6.14151 14.7405 6.21386C14.3768 6.2862 13.9998 6.24907 13.6572 6.10716C13.3145 5.96524 13.0217 5.72492 12.8157 5.41658C12.6097 5.10824 12.4997 4.74572 12.4997 4.37488C12.4997 3.8776 12.6972 3.40069 13.0489 3.04906C13.4005 2.69743 13.8774 2.49988 14.3747 2.49988ZM4.37469 11.8749C4.00385 11.8749 3.64134 11.7649 3.33299 11.5589C3.02465 11.3529 2.78433 11.06 2.64241 10.7174C2.5005 10.3748 2.46337 9.9978 2.53572 9.63409C2.60806 9.27038 2.78664 8.93628 3.04886 8.67406C3.31109 8.41184 3.64518 8.23326 4.00889 8.16091C4.37261 8.08856 4.74961 8.1257 5.09222 8.26761C5.43483 8.40952 5.72767 8.64985 5.93369 8.95819C6.13972 9.26653 6.24969 9.62904 6.24969 9.99988C6.24969 10.4972 6.05214 10.9741 5.70051 11.3257C5.34888 11.6773 4.87197 11.8749 4.37469 11.8749ZM14.3747 17.4999C14.0038 17.4999 13.6413 17.3899 13.333 17.1839C13.0247 16.9779 12.7843 16.685 12.6424 16.3424C12.5005 15.9998 12.4634 15.6228 12.5357 15.2591C12.6081 14.8954 12.7866 14.5613 13.0489 14.2991C13.3111 14.0368 13.6452 13.8583 14.0089 13.7859C14.3726 13.7136 14.7496 13.7507 15.0922 13.8926C15.4348 14.0345 15.7277 14.2748 15.9337 14.5832C16.1397 14.8915 16.2497 15.254 16.2497 15.6249C16.2497 16.1222 16.0521 16.5991 15.7005 16.9507C15.3489 17.3023 14.872 17.4999 14.3747 17.4999Z" fill="#637381"/>
</g>
</svg>
