<svg width="106" height="32" viewBox="0 0 106 32" fill="none" xmlns="http://www.w3.org/2000/svg">
<g id=" brands/brand_heroku" clip-path="url(#clip0_27569_10481)">
<mask id="mask0_27569_10481" style="mask-type:alpha" maskUnits="userSpaceOnUse" x="0" y="0" width="106" height="32">
<rect id="MASK" width="106" height="32" fill="#919EAB"/>
</mask>
<g mask="url(#mask0_27569_10481)">
<path id="logo" d="M28.6447 3H10.2767C8.99666 3 7.97266 4.024 7.97266 5.304V26.296C7.97266 27.576 8.99666 28.6 10.2767 28.6H28.6447C29.9247 28.6 30.9487 27.576 30.9487 26.296V5.304C30.9487 4.024 29.9247 3 28.6447 3ZM29.6687 26.296C29.6687 26.872 29.2207 27.32 28.6447 27.32H10.2767C9.70066 27.32 9.25266 26.872 9.25266 26.296V5.304C9.25266 4.728 9.70066 4.28 10.2767 4.28H28.6447C29.2207 4.28 29.6687 4.728 29.6687 5.304V26.296ZM13.7327 24.76L16.6127 22.2L13.7327 19.64V24.76ZM24.1007 14.392C23.5887 13.88 22.6287 13.24 21.0287 13.24C19.3007 13.24 17.5087 13.688 16.2287 14.136V6.84H13.7327V17.912L15.5247 17.08C15.5247 17.08 18.4687 15.736 21.0287 15.736C22.3087 15.736 22.6287 16.44 22.6287 17.08V24.76H25.1887V17.08C25.1887 16.888 25.1887 15.48 24.1007 14.392ZM20.7087 11H23.2687C24.4207 9.656 24.9967 8.312 25.1887 6.84H22.6287C22.3727 8.312 21.7327 9.656 20.7087 11ZM91.4288 17.016V11.32H93.9888V16.952C93.9888 18.232 94.4368 18.872 95.4608 18.872C96.4848 18.872 96.8688 18.296 96.8688 16.952V11.32H99.3648V17.016C99.3648 19.512 98.1488 20.984 95.3968 20.984C92.6448 20.984 91.4288 19.512 91.4288 17.016ZM80.6768 11.384H83.2368V14.84L85.8608 11.384H88.8048L85.6048 15.096L89.0608 20.856H86.1808L83.9408 17.08L83.2368 17.912V20.856H80.6768V11.384ZM68.5167 16.056C68.5167 12.6 70.8847 11.128 73.1887 11.128C75.4928 11.128 77.8607 12.6 77.8607 16.056C77.8607 19.512 75.4928 20.984 73.1887 20.984C70.8847 20.984 68.5167 19.576 68.5167 16.056ZM75.2367 16.056C75.2367 14.328 74.4688 13.24 73.1247 13.24C71.7807 13.24 71.0127 14.328 71.0127 16.056C71.0127 17.784 71.7807 18.936 73.1247 18.936C74.4688 18.936 75.2367 17.848 75.2367 16.056ZM58.2127 11.384H61.9247C64.3567 11.384 65.8287 12.216 65.8287 14.456C65.8287 15.928 65.1887 16.824 63.9727 17.208L65.9567 20.856H63.2687L61.4127 17.592H60.7087V20.856H58.2127V11.384ZM61.8607 15.608C62.8847 15.608 63.3967 15.288 63.3967 14.52C63.3967 13.752 62.9487 13.432 61.8607 13.432H60.7727V15.608H61.8607ZM48.4207 11.384H55.2047V13.496H50.9807V15.032H53.9887V17.016H50.9807V18.744H55.3967V20.792H48.4207V11.384ZM36.8367 11.384H39.3967V14.904H42.5327V11.384H45.0927V20.856H42.5327V17.016H39.3967V20.856H36.8367V11.384Z" fill="#919EAB"/>
</g>
</g>
<defs>
<clipPath id="clip0_27569_10481">
<rect width="106" height="32" fill="white"/>
</clipPath>
</defs>
</svg>
