<svg width="106" height="32" viewBox="0 0 106 32" fill="none" xmlns="http://www.w3.org/2000/svg">
<g id=" brands/brand_google" clip-path="url(#clip0_27569_10497)">
<mask id="mask0_27569_10497" style="mask-type:alpha" maskUnits="userSpaceOnUse" x="0" y="0" width="106" height="32">
<rect id="MASK" width="106" height="32" fill="#919EAB"/>
</mask>
<g mask="url(#mask0_27569_10497)">
<g id="Vector">
<path d="M23.3002 3H23.9976C26.419 3.05264 28.8009 4.02645 30.5117 5.75036C29.88 6.39518 29.2352 7.01368 28.6167 7.6585C27.656 6.78997 26.498 6.11883 25.2346 5.88195C23.366 5.48716 21.3526 5.84247 19.7866 6.9084C18.0758 8.02697 16.9178 9.92195 16.6677 11.9485C16.3914 13.9488 16.9572 16.0543 18.26 17.6072C19.5102 19.1205 21.4183 20.068 23.3923 20.1338C25.2346 20.2391 27.1559 19.6732 28.4982 18.3836C29.551 17.4756 30.0379 16.0938 30.1958 14.7515C28.0113 14.7515 25.8268 14.7647 23.6423 14.7515V12.0406H32.8409C33.3147 14.9489 32.6304 18.2257 30.4195 20.3049C28.9457 21.7788 26.9059 22.6473 24.8267 22.8184C22.8133 23.0158 20.734 22.6341 18.9443 21.6603C16.7993 20.5154 15.0886 18.581 14.2464 16.3044C13.4568 14.212 13.4436 11.8433 14.1806 9.73772C14.8517 7.81642 16.1413 6.11883 17.7995 4.93446C19.3918 3.76326 21.3262 3.11844 23.3002 3Z" fill="#919EAB"/>
<path d="M76.0701 3.68424H78.8862V22.4762C77.9518 22.4762 77.0044 22.4893 76.0701 22.463C76.0832 16.2122 76.0701 9.94823 76.0701 3.68424Z" fill="#919EAB"/>
<path d="M39.1048 10.1983C40.8419 9.86932 42.7237 10.2378 44.1581 11.2774C45.4609 12.1986 46.3689 13.6461 46.6453 15.2253C47.0006 17.0545 46.5532 19.0547 45.3688 20.5023C44.0923 22.1209 41.9999 22.9894 39.9602 22.8578C38.0915 22.7526 36.2755 21.8182 35.17 20.2917C33.9199 18.6073 33.6172 16.2912 34.3015 14.3173C34.9858 12.1986 36.9203 10.5799 39.1048 10.1983ZM39.4996 12.6986C38.789 12.8829 38.131 13.2908 37.6572 13.8698C36.3807 15.3964 36.4597 17.8835 37.8678 19.3048C38.6705 20.1206 39.8812 20.5023 40.9998 20.2786C42.0394 20.0943 42.9474 19.3969 43.4475 18.4757C44.316 16.9097 44.066 14.7515 42.7369 13.5277C41.8815 12.7381 40.6313 12.4091 39.4996 12.6986Z" fill="#919EAB"/>
<path d="M53.054 10.1983C55.0411 9.81667 57.2124 10.3694 58.6995 11.7643C61.1208 13.9356 61.384 18.002 59.318 20.5023C58.0678 22.0814 56.0412 22.95 54.041 22.8579C52.1328 22.8052 50.251 21.8577 49.1193 20.2917C47.8428 18.5678 47.5665 16.1991 48.2902 14.1857C49.014 12.1328 50.909 10.5668 53.054 10.1983ZM53.4488 12.6986C52.7382 12.8829 52.0802 13.2908 51.6065 13.8567C50.3431 15.3569 50.3958 17.8046 51.7512 19.239C52.5539 20.0943 53.8041 20.5155 54.9621 20.2786C55.9886 20.0812 56.9098 19.3969 57.4098 18.4757C58.2652 16.8966 58.0152 14.7384 56.6729 13.5145C55.8175 12.725 54.5674 12.4091 53.4488 12.6986Z" fill="#919EAB"/>
<path d="M64.8845 10.9615C66.3978 10.014 68.4112 9.75083 70.043 10.5667C70.5563 10.7904 70.9774 11.1721 71.3853 11.5537C71.3985 11.1984 71.3853 10.8299 71.3985 10.4614C72.2802 10.4746 73.1619 10.4614 74.0567 10.4746V22.0814C74.0435 23.8316 73.5961 25.6871 72.3328 26.9636C70.951 28.3717 68.8323 28.806 66.9242 28.5165C64.8845 28.2138 63.1079 26.7267 62.3183 24.8449C63.1079 24.4633 63.937 24.1606 64.7529 23.8053C65.2134 24.8844 66.1478 25.8056 67.319 26.0161C68.4902 26.2267 69.8456 25.9372 70.6089 24.9634C71.4248 23.9632 71.4248 22.5946 71.3853 21.3708C70.78 21.963 70.0825 22.4893 69.2403 22.6867C67.4111 23.2 65.3977 22.5683 63.9896 21.3313C62.5684 20.0943 61.7261 18.1862 61.8051 16.2912C61.8446 14.1461 63.0553 12.0801 64.8845 10.9615ZM67.6085 12.6459C66.8058 12.7775 66.0557 13.225 65.5424 13.8435C64.3054 15.3174 64.3054 17.6729 65.5556 19.1205C66.2662 19.9759 67.4111 20.4496 68.5165 20.3312C69.5561 20.2259 70.5168 19.5679 71.03 18.6599C71.8985 17.1202 71.7538 15.0278 70.5826 13.6856C69.8588 12.8565 68.7007 12.4486 67.6085 12.6459Z" fill="#919EAB"/>
<path d="M82.2685 11.6327C83.8476 10.1589 86.2822 9.65879 88.3088 10.4352C90.2301 11.159 91.4539 12.9882 92.0725 14.87C89.2168 16.0544 86.3743 17.2256 83.5186 18.41C83.9134 19.1601 84.5188 19.8444 85.3347 20.1207C86.4796 20.5287 87.8482 20.3839 88.8088 19.6207C89.1905 19.3311 89.4931 18.9495 89.7827 18.581C90.5064 19.0679 91.2302 19.5417 91.954 20.0286C90.9276 21.5683 89.2036 22.6474 87.3481 22.8184C85.2952 23.0685 83.1107 22.2789 81.7815 20.6734C79.597 18.1468 79.8076 13.9094 82.2685 11.6327ZM83.6766 14.0673C83.2291 14.7121 83.0449 15.5017 83.058 16.2781C84.9662 15.4885 86.8744 14.6989 88.7825 13.8962C88.4667 13.1593 87.7034 12.7118 86.927 12.5934C85.6768 12.3697 84.374 13.0408 83.6766 14.0673Z" fill="#919EAB"/>
</g>
</g>
</g>
<defs>
<clipPath id="clip0_27569_10497">
<rect width="106" height="32" fill="white"/>
</clipPath>
</defs>
</svg>
