<svg width="106" height="32" viewBox="0 0 106 32" fill="none" xmlns="http://www.w3.org/2000/svg">
<g id=" brands/brand_microsoft" clip-path="url(#clip0_27569_10471)">
<mask id="mask0_27569_10471" style="mask-type:alpha" maskUnits="userSpaceOnUse" x="0" y="0" width="106" height="32">
<rect id="MASK" width="106" height="32" fill="#919EAB"/>
</mask>
<g mask="url(#mask0_27569_10471)">
<g id="Vector">
<path d="M103.516 14.6462V12.8897H101.334V10.1591L101.261 10.1817L99.2122 10.8085L99.1718 10.8208V12.8898H95.9382V11.7372C95.9382 11.2005 96.0582 10.7898 96.2947 10.5159C96.5296 10.2453 96.8655 10.1077 97.294 10.1077C97.602 10.1077 97.9209 10.1802 98.2419 10.3233L98.3224 10.3593V8.50948L98.2845 8.49557C97.9851 8.38794 97.5779 8.33374 97.0731 8.33374C96.4369 8.33374 95.8588 8.47219 95.3547 8.74658C94.8502 9.02135 94.4534 9.4136 94.1755 9.91233C93.8985 10.4105 93.7579 10.9858 93.7579 11.6225V12.8897H92.2391V14.6462H93.7579V22.0458H95.9382V14.6462H99.1718V19.3485C99.1718 21.2851 100.085 22.2666 101.887 22.2666C102.183 22.2666 102.494 22.2319 102.813 22.164C103.136 22.0942 103.357 22.0245 103.487 21.9501L103.516 21.9331V20.1605L103.427 20.2191C103.309 20.2979 103.161 20.3624 102.988 20.4103C102.815 20.4591 102.67 20.4835 102.558 20.4835C102.136 20.4835 101.823 20.3698 101.63 20.1454C101.434 19.9189 101.334 19.5229 101.334 18.9689V14.6462H103.516ZM87.3701 20.4838C86.5788 20.4838 85.9548 20.2214 85.5151 19.7045C85.0727 19.185 84.8486 18.4444 84.8486 17.5034C84.8486 16.5325 85.0728 15.7726 85.5153 15.2439C85.9553 14.7187 86.5733 14.4522 87.3524 14.4522C88.1084 14.4522 88.7102 14.7067 89.1413 15.2092C89.5745 15.7143 89.7944 16.4681 89.7944 17.4503C89.7944 18.4446 89.5876 19.2083 89.1799 19.7192C88.775 20.2262 88.1662 20.4838 87.3701 20.4838ZM87.467 12.6691C85.9573 12.6691 84.7581 13.1115 83.903 13.9841C83.0486 14.8567 82.6154 16.0643 82.6154 17.5736C82.6154 19.0072 83.0382 20.1603 83.8724 21.0003C84.7066 21.8407 85.8418 22.2664 87.2463 22.2664C88.7098 22.2664 89.8851 21.8178 90.7398 20.9332C91.5943 20.0495 92.0273 18.8534 92.0273 17.3793C92.0273 15.9233 91.621 14.7616 90.8194 13.9272C90.0174 13.0923 88.8893 12.6691 87.467 12.6691ZM79.1 12.6691C78.073 12.6691 77.2235 12.9318 76.5745 13.4498C75.9216 13.9708 75.5904 14.6542 75.5904 15.4811C75.5904 15.9109 75.6619 16.2928 75.8026 16.6166C75.9441 16.9415 76.1631 17.2276 76.4541 17.4677C76.7429 17.7059 77.1887 17.9553 77.7794 18.2091C78.276 18.4135 78.6463 18.5863 78.8816 18.7225C79.1115 18.8561 79.2747 18.9903 79.3669 19.121C79.4564 19.2489 79.5019 19.424 79.5019 19.64C79.5019 20.2551 79.0412 20.5545 78.0933 20.5545C77.7417 20.5545 77.3407 20.481 76.9014 20.3363C76.4652 20.1938 76.0535 19.985 75.6807 19.7174L75.5902 19.6525V21.7516L75.6235 21.7671C75.9319 21.9095 76.3209 22.0296 76.7794 22.1241C77.2369 22.2186 77.6527 22.2668 78.0138 22.2668C79.1283 22.2668 80.0257 22.0028 80.6805 21.4818C81.3396 20.9571 81.6736 20.2576 81.6736 19.4021C81.6736 18.7849 81.4938 18.2557 81.1394 17.8288C80.7874 17.4055 80.1765 17.0168 79.3245 16.6732C78.6457 16.4008 78.2108 16.1746 78.0314 16.001C77.8584 15.8333 77.7706 15.5961 77.7706 15.2957C77.7706 15.0294 77.879 14.8161 78.1015 14.6434C78.3258 14.4697 78.6379 14.3814 79.0294 14.3814C79.3927 14.3814 79.7644 14.4388 80.134 14.5513C80.5034 14.6637 80.8278 14.8144 81.0986 14.9986L81.1877 15.0595V13.0683L81.1535 13.0536C80.9036 12.9464 80.5742 12.8547 80.174 12.7803C79.7757 12.7064 79.4143 12.6691 79.1 12.6691ZM69.9065 20.4838C69.1153 20.4838 68.4912 20.2214 68.0516 19.7045C67.6091 19.185 67.3853 18.4446 67.3853 17.5034C67.3853 16.5325 67.6094 15.7726 68.0521 15.2439C68.4917 14.7187 69.1095 14.4522 69.889 14.4522C70.6447 14.4522 71.2465 14.7067 71.6777 15.2092C72.111 15.7143 72.3308 16.4681 72.3308 17.4503C72.3308 18.4446 72.124 19.2083 71.7163 19.7192C71.3113 20.2262 70.7028 20.4838 69.9065 20.4838ZM70.0037 12.6691C68.4935 12.6691 67.2942 13.1115 66.4397 13.9841C65.5852 14.8567 65.1517 16.0643 65.1517 17.5736C65.1517 19.0077 65.5749 20.1603 66.409 21.0003C67.2432 21.8407 68.3783 22.2664 69.7828 22.2664C71.2461 22.2664 72.4217 21.8178 73.2764 20.9332C74.1308 20.0495 74.5639 18.8534 74.5639 17.3793C74.5639 15.9233 74.1575 14.7616 73.3557 13.9272C72.5535 13.0923 71.4256 12.6691 70.0037 12.6691ZM61.8421 14.4754V12.8897H59.6883V22.0456H61.8421V17.362C61.8421 16.5656 62.0226 15.9113 62.3789 15.4172C62.7307 14.9289 63.1995 14.6814 63.7718 14.6814C63.9658 14.6814 64.1836 14.7134 64.4194 14.7767C64.6529 14.8396 64.8219 14.9079 64.9216 14.9798L65.0122 15.0454V12.8741L64.9773 12.8591C64.7767 12.7739 64.493 12.7309 64.1339 12.7309C63.5927 12.7309 63.1084 12.9048 62.6935 13.2472C62.3294 13.5481 62.0662 13.9608 61.865 14.4754H61.8421ZM55.8314 12.6691C54.8433 12.6691 53.962 12.881 53.2123 13.2987C52.4612 13.7173 51.8802 14.315 51.485 15.0749C51.0915 15.8331 50.8917 16.7186 50.8917 17.7062C50.8917 18.5713 51.0854 19.3652 51.4683 20.0649C51.8513 20.7657 52.3935 21.314 53.0799 21.6943C53.7653 22.0741 54.5574 22.2667 55.4345 22.2667C56.458 22.2667 57.3319 22.062 58.0325 21.6585L58.0608 21.6422V19.6691L57.9703 19.7352C57.6529 19.9664 57.2983 20.1509 56.9166 20.2838C56.536 20.4167 56.1889 20.4838 55.8846 20.4838C55.0395 20.4838 54.3611 20.2194 53.8686 19.6981C53.3751 19.176 53.1249 18.443 53.1249 17.5206C53.1249 16.5925 53.3859 15.8406 53.9001 15.2859C54.4129 14.7327 55.0926 14.4522 55.9202 14.4522C56.6281 14.4522 57.3179 14.6919 57.9705 15.1653L58.0608 15.2309V13.1518L58.0317 13.1354C57.7861 12.9979 57.4511 12.8844 57.0353 12.7983C56.6212 12.7124 56.2162 12.6691 55.8314 12.6691ZM49.4083 12.8898H47.2546V22.0456H49.4083V12.8898ZM48.3535 8.98937C47.999 8.98937 47.6899 9.11004 47.4359 9.34916C47.1808 9.58896 47.0514 9.89088 47.0514 10.2472C47.0514 10.5979 47.1792 10.8943 47.4319 11.1277C47.6829 11.3605 47.993 11.4785 48.3536 11.4785C48.7141 11.4785 49.0254 11.3605 49.2794 11.1281C49.535 10.8943 49.6647 10.598 49.6647 10.2472C49.6647 9.90334 49.5385 9.60451 49.2899 9.35882C49.0415 9.11362 48.7263 8.98937 48.3535 8.98937ZM42.9798 12.2143V22.0456H45.1778V9.26965H42.1357L38.269 18.7593L34.5166 9.26965H31.3506V22.0455H33.4161V12.2133H33.487L37.4495 22.0456H39.0083L42.9089 12.2143H42.9798Z" fill="#919EAB"/>
<path d="M13.7724 15.1318H3.64062V5H13.7724V15.1318Z" fill="#919EAB"/>
<path d="M24.959 15.1324H14.8274V5.00061H24.959V15.1324Z" fill="#919EAB"/>
<path d="M13.7721 26.323H3.64062V16.1913H13.7721V26.323Z" fill="#919EAB"/>
<path d="M24.959 26.323H14.8274V16.1913H24.959V26.323Z" fill="#919EAB"/>
</g>
</g>
</g>
<defs>
<clipPath id="clip0_27569_10471">
<rect width="106" height="32" fill="white"/>
</clipPath>
</defs>
</svg>
