<svg width="106" height="32" viewBox="0 0 106 32" fill="none" xmlns="http://www.w3.org/2000/svg">
<g id=" brands/brand_dropbox" clip-path="url(#clip0_27569_10474)">
<mask id="mask0_27569_10474" style="mask-type:alpha" maskUnits="userSpaceOnUse" x="0" y="0" width="106" height="32">
<rect id="MASK" width="106" height="32" fill="#919EAB"/>
</mask>
<g mask="url(#mask0_27569_10474)">
<g id="Vector">
<path d="M13.1037 9.8716L7.03817 13.7432L13.1037 17.6148L7.03817 21.4864L0.972656 17.5826L7.03817 13.7109L0.972656 9.8716L7.03817 6L13.1037 9.8716ZM7.00591 22.7124L13.0714 18.8408L19.1369 22.7124L13.0714 26.584L7.00591 22.7124ZM13.1037 17.5826L19.1692 13.7109L13.1037 9.8716L19.1369 6L25.2024 9.8716L19.1369 13.7432L25.2024 17.6148L19.1369 21.4864L13.1037 17.5826Z" fill="#919EAB"/>
<path d="M29.9451 9.87221H34.8491C37.9787 9.87221 40.5597 11.679 40.5597 15.8087V16.6798C40.5597 20.8418 38.14 22.713 34.9459 22.713H29.9451V9.87221ZM32.6875 12.1952V20.3578H34.7846C36.5591 20.3578 37.7528 19.1963 37.7528 16.6153V15.9377C37.7528 13.3567 36.4945 12.1952 34.6878 12.1952H32.6875ZM42.0116 12.3242H44.2055L44.5604 14.744C44.9798 13.0985 46.0445 12.2274 47.9803 12.2274H48.6579V15.0021H47.5286C45.3025 15.0021 44.754 15.7764 44.754 17.9703V22.7453H42.0438V12.3242H42.0116ZM49.2063 17.7445V17.4541C49.2063 13.9697 51.4325 12.0661 54.4653 12.0661C57.5626 12.0661 59.7242 13.9697 59.7242 17.4541V17.7445C59.7242 21.1644 57.6271 23.0034 54.4653 23.0034C51.1099 22.9711 49.2063 21.1644 49.2063 17.7445ZM56.9496 17.7122V17.4541C56.9496 15.5183 55.9816 14.3568 54.433 14.3568C52.9166 14.3568 51.9165 15.4215 51.9165 17.4541V17.7122C51.9165 19.5835 52.8844 20.6482 54.433 20.6482C55.9816 20.6159 56.9496 19.5835 56.9496 17.7122ZM61.1438 12.3242H63.4022L63.6603 14.2923C64.2088 12.9695 65.3703 12.0661 67.0803 12.0661C69.7259 12.0661 71.4681 13.9697 71.4681 17.4864V17.7767C71.4681 21.1967 69.5323 23.0034 67.0803 23.0034C65.4348 23.0034 64.3056 22.2613 63.7571 21.0676V26.3265H61.1115L61.1438 12.3242ZM68.7257 17.7122V17.4864C68.7257 15.4215 67.661 14.3891 66.2414 14.3891C64.725 14.3891 63.7249 15.5506 63.7249 17.4864V17.6799C63.7249 19.519 64.6928 20.6804 66.2092 20.6804C67.7578 20.6482 68.7257 19.648 68.7257 17.7122ZM75.4688 20.8095L75.2429 22.713H72.9199V8.83978H75.5655V14.1632C76.1463 12.8082 77.3078 12.0661 78.9532 12.0661C81.4375 12.0984 83.2765 13.8083 83.2765 17.2605V17.5832C83.2765 21.0353 81.5343 23.0034 78.8887 23.0034C77.1464 22.9711 76.0172 22.1646 75.4688 20.8095ZM80.5018 17.5832V17.325C80.5018 15.4215 79.4694 14.3568 78.0176 14.3568C76.5334 14.3568 75.501 15.5506 75.501 17.3573V17.5832C75.501 19.519 76.5012 20.6482 77.9853 20.6482C79.5662 20.6482 80.5018 19.648 80.5018 17.5832ZM84.438 17.7445V17.4541C84.438 13.9697 86.6642 12.0661 89.6969 12.0661C92.7942 12.0661 94.9559 13.9697 94.9559 17.4541V17.7445C94.9559 21.1644 92.8265 23.0034 89.6969 23.0034C86.3415 22.9711 84.438 21.1644 84.438 17.7445ZM92.2135 17.7122V17.4541C92.2135 15.5183 91.2456 14.3568 89.6969 14.3568C88.1805 14.3568 87.1804 15.4215 87.1804 17.4541V17.7122C87.1804 19.5835 88.1483 20.6482 89.6969 20.6482C91.2456 20.6159 92.2135 19.5835 92.2135 17.7122ZM98.5048 17.325L94.8591 12.3242H97.9886L100.086 15.4538L102.215 12.3242H105.312L101.602 17.2928L105.506 22.713H102.441L100.053 19.2609L97.7305 22.713H94.5364L98.5048 17.325Z" fill="#919EAB"/>
</g>
</g>
</g>
<defs>
<clipPath id="clip0_27569_10474">
<rect width="106" height="32" fill="white"/>
</clipPath>
</defs>
</svg>
