<svg width="21" height="20" viewBox="0 0 21 20" fill="none" xmlns="http://www.w3.org/2000/svg">
<g id="icon/ic_email">
<path id="Vector" d="M17.834 3.61011H2.83398C2.50246 3.61011 2.18452 3.7418 1.9501 3.97622C1.71568 4.21064 1.58398 4.52859 1.58398 4.86011V14.8601C1.58398 15.1916 1.71568 15.5096 1.9501 15.744C2.18452 15.9784 2.50246 16.1101 2.83398 16.1101H17.834C18.1655 16.1101 18.4834 15.9784 18.7179 15.744C18.9523 15.5096 19.084 15.1916 19.084 14.8601V4.86011C19.084 4.52859 18.9523 4.21064 18.7179 3.97622C18.4834 3.7418 18.1655 3.61011 17.834 3.61011ZM16.459 4.86011L10.334 9.09761L4.20898 4.86011H16.459ZM2.83398 14.8601V5.42886L9.97773 10.3726C10.0824 10.4452 10.2067 10.4841 10.334 10.4841C10.4613 10.4841 10.5856 10.4452 10.6902 10.3726L17.834 5.42886V14.8601H2.83398Z" fill="#212B36"/>
</g>
</svg>
