<svg width="25" height="24" viewBox="0 0 25 24" fill="none" xmlns="http://www.w3.org/2000/svg">
<g id="icon/ic_calendar">
<path id="Vector" d="M20.167 3.33203H17.167V1.83203H15.667V3.33203H9.66699V1.83203H8.16699V3.33203H5.16699C4.34199 3.33203 3.66699 4.00703 3.66699 4.83203V19.832C3.66699 20.657 4.34199 21.332 5.16699 21.332H20.167C20.992 21.332 21.667 20.657 21.667 19.832V4.83203C21.667 4.00703 20.992 3.33203 20.167 3.33203ZM20.167 19.832H5.16699V9.33203H20.167V19.832ZM20.167 7.83203H5.16699V4.83203H8.16699V6.33203H9.66699V4.83203H15.667V6.33203H17.167V4.83203H20.167V7.83203Z" fill="#637381"/>
</g>
</svg>
