<svg width="21" height="20" viewBox="0 0 21 20" fill="none" xmlns="http://www.w3.org/2000/svg">
<g id="icon/ic_external_link_outline">
<g id="Vector">
<path d="M15.75 17.7766H3.25C2.91862 17.7762 2.60093 17.6443 2.36661 17.41C2.13229 17.1757 2.00045 16.858 2 16.5266V4.02661C2.00045 3.69523 2.13229 3.37754 2.36661 3.14322C2.60093 2.9089 2.91862 2.77706 3.25 2.77661H9.5V4.02661H3.25V16.5266H15.75V10.2766H17V16.5266C16.9996 16.858 16.8677 17.1757 16.6334 17.41C16.3991 17.6443 16.0814 17.7762 15.75 17.7766Z" fill="#FA541C"/>
<path d="M12 1.52661V2.77661H16.1163L10.75 8.14286L11.6337 9.02661L17 3.66036V7.77661H18.25V1.52661H12Z" fill="#FA541C"/>
</g>
</g>
</svg>
