<svg width="21" height="20" viewBox="0 0 21 20" fill="none" xmlns="http://www.w3.org/2000/svg">
<g id="icon/ic_mobile">
<path id="Vector" d="M14.084 2.5H6.58398C6.25257 2.50033 5.93482 2.63213 5.70047 2.86648C5.46612 3.10083 5.33432 3.41858 5.33398 3.75V17.5C5.33436 17.8314 5.46618 18.1491 5.70052 18.3835C5.93486 18.6178 6.25258 18.7496 6.58398 18.75H14.084C14.4154 18.7496 14.7331 18.6177 14.9674 18.3834C15.2017 18.1491 15.3335 17.8314 15.334 17.5V3.75C15.3336 3.4186 15.2018 3.10087 14.9674 2.86654C14.7331 2.6322 14.4154 2.50038 14.084 2.5ZM14.084 3.75V5H6.58398V3.75H14.084ZM6.58398 17.5V6.25H14.084V17.5H6.58398Z" fill="#212B36"/>
</g>
</svg>
