<svg width="21" height="20" viewBox="0 0 21 20" fill="none" xmlns="http://www.w3.org/2000/svg">
<g id="icon/ic_pin">
<g id="Vector">
<path d="M10.334 11.25C9.71593 11.25 9.11174 11.0667 8.59784 10.7233C8.08393 10.38 7.68339 9.8919 7.44687 9.32088C7.21035 8.74987 7.14846 8.12153 7.26904 7.51534C7.38962 6.90915 7.68725 6.35233 8.12428 5.91529C8.56132 5.47825 9.11815 5.18062 9.72434 5.06004C10.3305 4.93947 10.9589 5.00135 11.5299 5.23788C12.1009 5.4744 12.589 5.87494 12.9323 6.38884C13.2757 6.90275 13.459 7.50693 13.459 8.125C13.4581 8.95351 13.1285 9.74782 12.5427 10.3337C11.9568 10.9195 11.1625 11.2491 10.334 11.25ZM10.334 6.25C9.96315 6.25 9.60064 6.35997 9.2923 6.56599C8.98396 6.77202 8.74363 7.06486 8.60172 7.40747C8.4598 7.75008 8.42267 8.12708 8.49502 8.49079C8.56737 8.85451 8.74594 9.1886 9.00817 9.45082C9.27039 9.71305 9.60448 9.89162 9.9682 9.96397C10.3319 10.0363 10.7089 9.99919 11.0515 9.85727C11.3941 9.71536 11.687 9.47504 11.893 9.16669C12.099 8.85835 12.209 8.49584 12.209 8.125C12.2084 7.62789 12.0107 7.15129 11.6592 6.79978C11.3077 6.44826 10.8311 6.25055 10.334 6.25Z" fill="#212B36"/>
<path d="M10.334 18.75L5.0618 12.5321C5.03187 12.4964 4.84418 12.2499 4.84418 12.2499C3.94349 11.0636 3.45688 9.6145 3.45899 8.125C3.45899 6.30164 4.18332 4.55295 5.47263 3.26364C6.76195 1.97433 8.51063 1.25 10.334 1.25C12.1574 1.25 13.906 1.97433 15.1954 3.26364C16.4847 4.55295 17.209 6.30164 17.209 8.125C17.2112 9.61389 16.725 11.0624 15.8247 12.2483L15.8238 12.2499C15.8238 12.2499 15.6363 12.4964 15.6084 12.5295L10.334 18.75ZM5.8418 11.4969C5.84243 11.4973 5.98768 11.6895 6.02093 11.7309L10.334 16.8174L14.6527 11.7237C14.6802 11.6892 14.8267 11.4956 14.827 11.4951C15.5628 10.5258 15.9604 9.34195 15.959 8.125C15.959 6.63316 15.3664 5.20242 14.3115 4.14752C13.2566 3.09263 11.8258 2.5 10.334 2.5C8.84215 2.5 7.41141 3.09263 6.35652 4.14752C5.30162 5.20242 4.70899 6.63316 4.70899 8.125C4.70761 9.34261 5.10554 10.5271 5.8418 11.4969Z" fill="#212B36"/>
</g>
</g>
</svg>
