<svg width="20" height="20" viewBox="0 0 20 20" fill="none" xmlns="http://www.w3.org/2000/svg">
<g id="icon/ic_star_fill">
<path id="Vector" d="M14.6336 17.4998C14.5004 17.5004 14.3689 17.4689 14.2503 17.4082L10.0003 15.1832L5.75029 17.4082C5.61228 17.4807 5.45669 17.5131 5.30119 17.5017C5.14569 17.4902 4.99652 17.4354 4.87065 17.3433C4.74477 17.2513 4.64724 17.1258 4.58914 16.9811C4.53103 16.8365 4.51469 16.6784 4.54196 16.5248L5.37529 11.8332L1.94196 8.49984C1.83484 8.39295 1.75885 8.2589 1.72215 8.11209C1.68544 7.96528 1.68941 7.81124 1.73362 7.66651C1.78192 7.51841 1.87077 7.38681 1.99008 7.28664C2.10939 7.18648 2.25439 7.12177 2.40862 7.09985L7.15862 6.40818L9.25029 2.13318C9.31853 1.99229 9.42507 1.87346 9.55772 1.79032C9.69036 1.70718 9.84374 1.66309 10.0003 1.66309C10.1568 1.66309 10.3102 1.70718 10.4429 1.79032C10.5755 1.87346 10.6821 1.99229 10.7503 2.13318L12.867 6.39984L17.617 7.09151C17.7712 7.11343 17.9162 7.17815 18.0355 7.27831C18.1548 7.37847 18.2437 7.51007 18.292 7.65818C18.3362 7.80291 18.3401 7.95694 18.3034 8.10376C18.2667 8.25057 18.1907 8.38462 18.0836 8.49151L14.6503 11.8248L15.4836 16.5165C15.5134 16.6727 15.4978 16.8342 15.4387 16.9819C15.3797 17.1296 15.2796 17.2572 15.1503 17.3498C14.9994 17.4556 14.8177 17.5083 14.6336 17.4998Z" fill="#FFC81A"/>
</g>
</svg>
