<svg width="25" height="24" viewBox="0 0 25 24" fill="none" xmlns="http://www.w3.org/2000/svg">
<g id="icon/ic_users_group">
<g id="Vector">
<path d="M19.8335 10.5H18.3335V12H19.8335C20.43 12.0007 21.0019 12.2379 21.4238 12.6597C21.8456 13.0815 22.0828 13.6535 22.0835 14.25V17.25H23.5835V14.25C23.5823 13.2558 23.1869 12.3026 22.4839 11.5996C21.7809 10.8966 20.8277 10.5012 19.8335 10.5Z" fill="#637381"/>
<path d="M18.3335 3C18.7785 3 19.2135 3.13196 19.5835 3.37919C19.9535 3.62643 20.2419 3.97783 20.4122 4.38896C20.5825 4.8001 20.6271 5.2525 20.5403 5.68895C20.4534 6.12541 20.2392 6.52632 19.9245 6.84099C19.6098 7.15566 19.2089 7.36995 18.7724 7.45677C18.336 7.54358 17.8836 7.49903 17.4725 7.32873C17.0613 7.15843 16.7099 6.87004 16.4627 6.50003C16.2155 6.13002 16.0835 5.69501 16.0835 5.25C16.0835 4.65326 16.3205 4.08097 16.7425 3.65901C17.1645 3.23705 17.7368 3 18.3335 3ZM18.3335 1.5C17.5918 1.5 16.8668 1.71993 16.2501 2.13199C15.6334 2.54404 15.1528 3.12971 14.8689 3.81494C14.5851 4.50016 14.5109 5.25416 14.6556 5.98159C14.8002 6.70902 15.1574 7.3772 15.6818 7.90165C16.2063 8.4261 16.8745 8.78325 17.6019 8.92795C18.3293 9.07264 19.0833 8.99838 19.7686 8.71455C20.4538 8.43072 21.0395 7.95007 21.4515 7.33339C21.8636 6.7167 22.0835 5.99168 22.0835 5.25C22.0835 4.25544 21.6884 3.30161 20.9851 2.59835C20.2819 1.89509 19.3281 1.5 18.3335 1.5Z" fill="#637381"/>
<path d="M17.5835 22.5H16.0835V21C16.0828 20.4035 15.8456 19.8315 15.4238 19.4097C15.0019 18.9879 14.43 18.7507 13.8335 18.75H10.8335C10.237 18.7507 9.66504 18.9879 9.24323 19.4097C8.82141 19.8315 8.58415 20.4035 8.5835 21V22.5H7.0835V21C7.08467 20.0058 7.48013 19.0527 8.18314 18.3496C8.88615 17.6466 9.83929 17.2512 10.8335 17.25H13.8335C14.8277 17.2512 15.7808 17.6466 16.4839 18.3496C17.1869 19.0527 17.5823 20.0058 17.5835 21V22.5Z" fill="#637381"/>
<path d="M12.3335 9.75C12.7785 9.75 13.2135 9.88196 13.5835 10.1292C13.9535 10.3764 14.2419 10.7278 14.4122 11.139C14.5825 11.5501 14.6271 12.0025 14.5403 12.439C14.4534 12.8754 14.2392 13.2763 13.9245 13.591C13.6098 13.9057 13.2089 14.12 12.7724 14.2068C12.336 14.2936 11.8836 14.249 11.4725 14.0787C11.0613 13.9084 10.7099 13.62 10.4627 13.25C10.2155 12.88 10.0835 12.445 10.0835 12C10.0835 11.4033 10.3205 10.831 10.7425 10.409C11.1645 9.98705 11.7368 9.75 12.3335 9.75ZM12.3335 8.25C11.5918 8.25 10.8668 8.46993 10.2501 8.88199C9.63342 9.29404 9.15277 9.87971 8.86895 10.5649C8.58512 11.2502 8.51086 12.0042 8.65555 12.7316C8.80024 13.459 9.1574 14.1272 9.68184 14.6517C10.2063 15.1761 10.8745 15.5333 11.6019 15.6779C12.3293 15.8226 13.0833 15.7484 13.7686 15.4645C14.4538 15.1807 15.0395 14.7001 15.4515 14.0834C15.8636 13.4667 16.0835 12.7417 16.0835 12C16.0835 11.0054 15.6884 10.0516 14.9851 9.34835C14.2819 8.64509 13.3281 8.25 12.3335 8.25Z" fill="#637381"/>
<path d="M6.3335 10.5H4.8335C3.83929 10.5012 2.88615 10.8966 2.18314 11.5996C1.48013 12.3027 1.08467 13.2558 1.0835 14.25V17.25H2.5835V14.25C2.58415 13.6535 2.82141 13.0815 3.24323 12.6597C3.66504 12.2379 4.23696 12.0007 4.8335 12H6.3335V10.5Z" fill="#637381"/>
<path d="M6.3335 3C6.7785 3 7.21352 3.13196 7.58353 3.37919C7.95354 3.62643 8.24193 3.97783 8.41223 4.38896C8.58252 4.8001 8.62708 5.2525 8.54026 5.68895C8.45345 6.12541 8.23915 6.52632 7.92449 6.84099C7.60982 7.15566 7.20891 7.36995 6.77245 7.45677C6.33599 7.54358 5.88359 7.49903 5.47246 7.32873C5.06132 7.15843 4.70992 6.87004 4.46269 6.50003C4.21546 6.13002 4.0835 5.69501 4.0835 5.25C4.0835 4.65326 4.32055 4.08097 4.74251 3.65901C5.16446 3.23705 5.73676 3 6.3335 3ZM6.3335 1.5C5.59182 1.5 4.86679 1.71993 4.25011 2.13199C3.63342 2.54404 3.15278 3.12971 2.86895 3.81494C2.58512 4.50016 2.51086 5.25416 2.65555 5.98159C2.80025 6.70902 3.1574 7.3772 3.68185 7.90165C4.20629 8.4261 4.87448 8.78325 5.60191 8.92795C6.32934 9.07264 7.08334 8.99838 7.76856 8.71455C8.45378 8.43072 9.03945 7.95007 9.45151 7.33339C9.86356 6.7167 10.0835 5.99168 10.0835 5.25C10.0835 4.25544 9.68841 3.30161 8.98515 2.59835C8.28189 1.89509 7.32806 1.5 6.3335 1.5Z" fill="#637381"/>
</g>
</g>
</svg>
