<svg width="25" height="24" viewBox="0 0 25 24" fill="none" xmlns="http://www.w3.org/2000/svg">
<g id="iconbase">
<g id="OVERLAY COLOR">
<path d="M20 22.5H5C4.60218 22.5 4.22064 22.342 3.93934 22.0607C3.65804 21.7794 3.5 21.3978 3.5 21V12C3.5 11.6022 3.65804 11.2206 3.93934 10.9393C4.22064 10.658 4.60218 10.5 5 10.5H7.25V12H5V21H20V12H17.75V10.5H20C20.3978 10.5 20.7794 10.658 21.0607 10.9393C21.342 11.2206 21.5 11.6022 21.5 12V21C21.5 21.3978 21.342 21.7794 21.0607 22.0607C20.7794 22.342 20.3978 22.5 20 22.5Z" fill="white"/>
<path d="M14.75 15H10.25V16.5H14.75V15Z" fill="white"/>
<path d="M15.9425 6.4425L13.25 9.1275V1.5H11.75V9.1275L9.0575 6.4425L8 7.5L12.5 12L17 7.5L15.9425 6.4425Z" fill="white"/>
</g>
</g>
</svg>
