<svg width="78" height="27" viewBox="0 0 78 27" fill="none" xmlns="http://www.w3.org/2000/svg">
<ellipse cx="72.1667" cy="14.1667" rx="4.16666" ry="4.16667" fill="#FA541C"/>
<g filter="url(#filter0_d_26891_1963)">
<path d="M52.4448 18.3333H48.3604L41.5292 8.05314V18.3333H37.4448V1.66663H41.5292L48.3604 11.9943V1.66663H52.4448V18.3333Z" fill="white"/>
<path d="M58.6437 4.91924V8.29056H64.1114V11.4245H58.6437V15.0807H64.667V18.3333H54.667V1.66663H64.667V4.91924H58.6437Z" fill="white"/>
<path d="M26.9124 18.3333C25.3846 18.3333 23.9803 17.9779 22.6994 17.267C21.434 16.5561 20.4232 15.5671 19.667 14.2999C18.9263 13.0173 18.5559 11.5801 18.5559 9.98837C18.5559 8.39665 18.9263 6.9672 19.667 5.70001C20.4232 4.43281 21.434 3.44379 22.6994 2.73292C23.9803 2.02206 25.3846 1.66663 26.9124 1.66663C28.4401 1.66663 29.8367 2.02206 31.1022 2.73292C32.383 3.44379 33.3861 4.43281 34.1114 5.70001C34.8522 6.9672 35.2225 8.39665 35.2225 9.98837C35.2225 11.5801 34.8522 13.0173 34.1114 14.2999C33.3707 15.5671 32.3676 16.5561 31.1022 17.267C29.8367 17.9779 28.4401 18.3333 26.9124 18.3333ZM26.9124 14.7172C28.2087 14.7172 29.2426 14.2845 30.0142 13.4191C30.8013 12.5537 31.1948 11.4101 31.1948 9.98837C31.1948 8.55119 30.8013 7.40762 30.0142 6.55768C29.2426 5.69228 28.2087 5.25958 26.9124 5.25958C25.6006 5.25958 24.5513 5.68455 23.7642 6.5345C22.9926 7.38444 22.6068 8.53573 22.6068 9.98837C22.6068 11.4256 22.9926 12.5768 23.7642 13.4422C24.5513 14.2922 25.6006 14.7172 26.9124 14.7172Z" fill="white"/>
<path d="M9.23016 15.0095H16.3337V18.3333H4.66699V15.2469L11.7234 4.99046H4.66699V1.66663H16.3337V4.75305L9.23016 15.0095Z" fill="white"/>
</g>
<defs>
<filter id="filter0_d_26891_1963" x="0.666992" y="1.66663" width="68" height="24.6666" filterUnits="userSpaceOnUse" color-interpolation-filters="sRGB">
<feFlood flood-opacity="0" result="BackgroundImageFix"/>
<feColorMatrix in="SourceAlpha" type="matrix" values="0 0 0 0 0 0 0 0 0 0 0 0 0 0 0 0 0 0 127 0" result="hardAlpha"/>
<feOffset dy="4"/>
<feGaussianBlur stdDeviation="2"/>
<feComposite in2="hardAlpha" operator="out"/>
<feColorMatrix type="matrix" values="0 0 0 0 0 0 0 0 0 0 0 0 0 0 0 0 0 0 0.25 0"/>
<feBlend mode="normal" in2="BackgroundImageFix" result="effect1_dropShadow_26891_1963"/>
<feBlend mode="normal" in="SourceGraphic" in2="effect1_dropShadow_26891_1963" result="shape"/>
</filter>
</defs>
</svg>
